<?xml version="1.0" encoding="UTF-8" standalone="no"?>
<!DOCTYPE svg PUBLIC "-//W3C//DTD SVG 1.1//EN" "http://www.w3.org/Graphics/SVG/1.1/DTD/svg11.dtd">
<svg width="100%" height="100%" viewBox="0 0 76 52" version="1.1" xmlns="http://www.w3.org/2000/svg" xmlns:xlink="http://www.w3.org/1999/xlink" xml:space="preserve" xmlns:serif="http://www.serif.com/" style="fill-rule:evenodd;clip-rule:evenodd;stroke-linejoin:round;stroke-miterlimit:2;">
    <g transform="matrix(1,0,0,1,0,-12.089)">
        <path d="M66.097,12.089L9.197,12.089C4.126,12.089 0,16.215 0,21.286L0,54.008C0,59.079 4.126,63.205 9.197,63.205L66.097,63.205C71.168,63.205 75.294,59.079 75.294,54.008L75.294,21.287C75.295,16.215 71.169,12.089 66.097,12.089ZM61.603,18.089L37.647,33.523L13.691,18.089L61.603,18.089ZM66.097,57.206L9.197,57.206C7.434,57.206 6,55.771 6,54.009L6,21.457L35.796,40.617C35.836,40.642 35.879,40.659 35.92,40.682C35.963,40.706 36.007,40.729 36.051,40.751C36.282,40.87 36.52,40.966 36.763,41.029C36.788,41.036 36.813,41.039 36.838,41.045C37.105,41.108 37.375,41.147 37.645,41.147L37.651,41.147C37.921,41.147 38.191,41.109 38.458,41.045C38.483,41.039 38.508,41.036 38.533,41.029C38.776,40.966 39.013,40.87 39.245,40.751C39.289,40.729 39.333,40.706 39.376,40.682C39.417,40.659 39.46,40.642 39.5,40.617L69.296,21.457L69.296,54.008C69.295,55.771 67.86,57.206 66.097,57.206Z" style="fill:white;fill-rule:nonzero;"/>
    </g>
</svg>
