<?xml version="1.0" encoding="UTF-8" standalone="no"?>
<!DOCTYPE svg PUBLIC "-//W3C//DTD SVG 1.1//EN" "http://www.w3.org/Graphics/SVG/1.1/DTD/svg11.dtd">
<svg width="100%" height="100%" viewBox="0 0 20 20" version="1.1" xmlns="http://www.w3.org/2000/svg" xmlns:xlink="http://www.w3.org/1999/xlink" xml:space="preserve" xmlns:serif="http://www.serif.com/" style="fill-rule:evenodd;clip-rule:evenodd;stroke-linejoin:round;stroke-miterlimit:2;">
    <g transform="matrix(1,0,0,1,-2,-2)">
        <path id="Shape" d="M12,2C6.475,2 2,6.475 2,12C2,16.425 4.863,20.163 8.838,21.488C9.338,21.575 9.525,21.275 9.525,21.013C9.525,20.775 9.513,19.988 9.513,19.15C7,19.613 6.35,18.538 6.15,17.975C6.037,17.688 5.55,16.8 5.125,16.563C4.775,16.375 4.275,15.913 5.113,15.9C5.9,15.887 6.463,16.625 6.65,16.925C7.55,18.438 8.988,18.013 9.563,17.75C9.65,17.1 9.913,16.663 10.2,16.413C7.975,16.163 5.65,15.3 5.65,11.475C5.65,10.387 6.037,9.488 6.675,8.788C6.575,8.538 6.225,7.513 6.775,6.138C6.775,6.138 7.613,5.875 9.525,7.162C10.325,6.938 11.175,6.825 12.025,6.825C12.875,6.825 13.725,6.938 14.525,7.162C16.438,5.863 17.275,6.138 17.275,6.138C17.825,7.513 17.475,8.538 17.375,8.788C18.013,9.488 18.4,10.375 18.4,11.475C18.4,15.313 16.063,16.163 13.838,16.413C14.2,16.725 14.512,17.325 14.512,18.263C14.512,19.6 14.5,20.675 14.5,21.013C14.5,21.275 14.688,21.587 15.188,21.488C19.138,20.163 22,16.413 22,12C22,6.475 17.525,2 12,2Z" style="fill:white;"/>
    </g>
</svg>
