<?xml version="1.0" encoding="UTF-8" standalone="no"?>
<!DOCTYPE svg PUBLIC "-//W3C//DTD SVG 1.1//EN" "http://www.w3.org/Graphics/SVG/1.1/DTD/svg11.dtd">
<svg width="100%" height="100%" viewBox="0 0 552 552" version="1.1" xmlns="http://www.w3.org/2000/svg" xmlns:xlink="http://www.w3.org/1999/xlink" xml:space="preserve" xmlns:serif="http://www.serif.com/" style="fill-rule:evenodd;clip-rule:evenodd;stroke-linejoin:round;stroke-miterlimit:2;">
    <path id="XMLID_17_" d="M386.878,0L164.156,0C73.64,0 0,73.64 0,164.156L0,386.878C0,477.394 73.64,551.034 164.156,551.034L386.878,551.034C477.394,551.034 551.034,477.394 551.034,386.878L551.034,164.156C551.033,73.64 477.393,0 386.878,0ZM495.6,386.878C495.6,446.923 446.923,495.6 386.878,495.6L164.156,495.6C104.111,495.6 55.434,446.923 55.434,386.878L55.434,164.156C55.434,104.11 104.111,55.434 164.156,55.434L386.878,55.434C446.923,55.434 495.6,104.11 495.6,164.156L495.6,386.878Z" style="fill:white;fill-rule:nonzero;"/>
    <path id="XMLID_81_" d="M275.517,133C196.933,133 133,196.933 133,275.516C133,354.099 196.933,418.033 275.517,418.033C354.101,418.033 418.034,354.1 418.034,275.516C418.034,196.932 354.101,133 275.517,133ZM275.517,362.6C227.422,362.6 188.434,323.612 188.434,275.517C188.434,227.422 227.423,188.434 275.517,188.434C323.612,188.434 362.6,227.422 362.6,275.517C362.6,323.611 323.611,362.6 275.517,362.6Z" style="fill:white;fill-rule:nonzero;"/>
    <circle id="XMLID_83_" cx="418.306" cy="134.072" r="34.149" style="fill:white;"/>
</svg>
