<?xml version="1.0" encoding="UTF-8" standalone="no"?>
<!DOCTYPE svg PUBLIC "-//W3C//DTD SVG 1.1//EN" "http://www.w3.org/Graphics/SVG/1.1/DTD/svg11.dtd">
<svg width="100%" height="100%" viewBox="0 0 21 21" version="1.1" xmlns="http://www.w3.org/2000/svg" xmlns:xlink="http://www.w3.org/1999/xlink" xml:space="preserve" xmlns:serif="http://www.serif.com/" style="fill-rule:evenodd;clip-rule:evenodd;stroke-linejoin:round;stroke-miterlimit:2;">
    <g transform="matrix(1,0,0,1,-1.99999,-2)">
        <path d="M7.253,18.494L7.977,18.917C9.198,19.629 10.587,20.003 12,20C16.389,20 20,16.389 20,12C20,7.611 16.389,4 12,4C7.611,4 4,7.611 4,12C4,13.436 4.377,14.813 5.084,16.024L5.506,16.748L4.853,19.149L7.253,18.494ZM2.004,22L3.356,17.032C2.465,15.505 1.997,13.768 2,12C2,6.477 6.477,2 12,2C17.523,2 22,6.477 22,12C22,17.523 17.523,22 12,22C10.233,22.003 8.497,21.535 6.97,20.645L2.004,22ZM8.391,7.308C8.525,7.298 8.66,7.298 8.794,7.304C8.848,7.308 8.902,7.314 8.956,7.32C9.115,7.338 9.29,7.435 9.349,7.569C9.647,8.245 9.937,8.926 10.217,9.609C10.279,9.761 10.242,9.956 10.124,10.146C10.043,10.274 9.955,10.399 9.861,10.518C9.748,10.663 9.505,10.929 9.505,10.929C9.505,10.929 9.406,11.047 9.444,11.194C9.458,11.25 9.504,11.331 9.546,11.399L9.605,11.494C9.861,11.921 10.205,12.354 10.625,12.762C10.745,12.878 10.862,12.997 10.988,13.108C11.456,13.521 11.986,13.858 12.558,14.108L12.563,14.11C12.648,14.147 12.691,14.167 12.815,14.22C12.877,14.246 12.941,14.269 13.006,14.286C13.143,14.321 13.288,14.269 13.373,14.156C14.097,13.279 14.163,13.222 14.169,13.222L14.169,13.224C14.271,13.129 14.409,13.083 14.547,13.097C14.607,13.101 14.668,13.112 14.724,13.137C15.255,13.38 16.124,13.759 16.124,13.759L16.706,14.02C16.804,14.067 16.893,14.178 16.896,14.285C16.9,14.352 16.906,14.46 16.883,14.658C16.851,14.917 16.773,15.228 16.695,15.391C16.642,15.502 16.571,15.604 16.485,15.693C16.384,15.799 16.274,15.895 16.155,15.981C16.114,16.012 16.072,16.042 16.03,16.071C15.906,16.15 15.778,16.223 15.647,16.291C15.39,16.428 15.105,16.506 14.814,16.521C14.629,16.531 14.444,16.545 14.258,16.535C14.25,16.535 13.69,16.448 13.69,16.448C12.268,16.074 10.953,15.373 9.85,14.402C9.624,14.203 9.415,13.989 9.201,13.776C8.311,12.891 7.639,11.936 7.231,11.034C7.022,10.591 6.909,10.109 6.9,9.62C6.896,9.013 7.094,8.422 7.464,7.94C7.537,7.846 7.606,7.748 7.725,7.635C7.852,7.515 7.932,7.451 8.019,7.407C8.135,7.349 8.261,7.315 8.39,7.307L8.391,7.308Z" style="fill:white;fill-rule:nonzero;"/>
    </g>
</svg>
